[2026-03-15 12:30:26] [INFO] Jarvis Desktop launcher started.
[2026-03-15 12:30:26] [INFO] Runtime log path: C:\Jarvis\logs\runtime_2026-03-15_12-30-26.txt
[2026-03-15 12:30:26] [INFO] Launcher executable: C:\Users\anden\AppData\Local\Python\pythoncore-3.14-64\pythonw.exe
[2026-03-15 12:30:26] [INFO] Root directory: C:\Jarvis
[2026-03-15 12:30:26] [INFO] Target script: C:\Jarvis\jarvis_desktop_test.py
[2026-03-15 12:30:26] [INFO] Diagnostics script: C:\Jarvis\desktop\jarvis_diagnostics.pyw
[2026-03-15 12:30:26] [INFO] Recovery attempts allowed: 3
[2026-03-15 12:30:26] [INFO] Voice hook ready: C:\Jarvis\jarvis_voice.py
[2026-03-15 12:30:26] [INFO] Starting desktop renderer process. attempt=1
[2026-03-15 12:30:26] [INFO] Child executable: C:\Users\anden\AppData\Local\Python\pythoncore-3.14-64\pythonw.exe
[2026-03-15 12:30:27] [STDOUT] Jarvis Desktop Concept 1 - Version 1.02
[2026-03-15 12:30:27] [STDOUT] Hotkey: Ctrl + Alt + End
[2026-03-15 12:30:27] [STDERR] Traceback (most recent call last):
[2026-03-15 12:30:27] [STDERR]   File "C:\Jarvis\jarvis_desktop_test.py", line 44, in <module>
[2026-03-15 12:30:27] [STDERR]     raise SystemExit(main())
[2026-03-15 12:30:27] [STDERR]                      ~~~~^^
[2026-03-15 12:30:27] [STDERR]   File "C:\Jarvis\jarvis_desktop_test.py", line 36, in main
[2026-03-15 12:30:27] [STDERR]     raise RuntimeError("Jarvis test crash triggered intentionally")
[2026-03-15 12:30:27] [STDERR] RuntimeError: Jarvis test crash triggered intentionally
[2026-03-15 12:30:27] [INFO] Desktop renderer exited. exit_code=1
[2026-03-15 12:30:27] [WARN] Recovery attempt 1/3
[2026-03-15 12:30:28] [INFO] Starting desktop renderer process. attempt=2
[2026-03-15 12:30:28] [INFO] Child executable: C:\Users\anden\AppData\Local\Python\pythoncore-3.14-64\pythonw.exe
[2026-03-15 12:30:28] [STDOUT] Jarvis Desktop Concept 1 - Version 1.02
[2026-03-15 12:30:28] [STDOUT] Hotkey: Ctrl + Alt + End
[2026-03-15 12:30:28] [STDERR] Traceback (most recent call last):
[2026-03-15 12:30:28] [STDERR]   File "C:\Jarvis\jarvis_desktop_test.py", line 44, in <module>
[2026-03-15 12:30:28] [STDERR]     raise SystemExit(main())
[2026-03-15 12:30:28] [STDERR]                      ~~~~^^
[2026-03-15 12:30:28] [STDERR]   File "C:\Jarvis\jarvis_desktop_test.py", line 36, in main
[2026-03-15 12:30:28] [STDERR]     raise RuntimeError("Jarvis test crash triggered intentionally")
[2026-03-15 12:30:28] [STDERR] RuntimeError: Jarvis test crash triggered intentionally
[2026-03-15 12:30:28] [INFO] Desktop renderer exited. exit_code=1
[2026-03-15 12:30:28] [WARN] Recovery attempt 2/3
[2026-03-15 12:30:30] [INFO] Starting desktop renderer process. attempt=3
[2026-03-15 12:30:30] [INFO] Child executable: C:\Users\anden\AppData\Local\Python\pythoncore-3.14-64\pythonw.exe
[2026-03-15 12:30:30] [STDOUT] Jarvis Desktop Concept 1 - Version 1.02
[2026-03-15 12:30:30] [STDOUT] Hotkey: Ctrl + Alt + End
[2026-03-15 12:30:30] [STDERR] Traceback (most recent call last):
[2026-03-15 12:30:30] [STDERR]   File "C:\Jarvis\jarvis_desktop_test.py", line 44, in <module>
[2026-03-15 12:30:30] [STDERR]     raise SystemExit(main())
[2026-03-15 12:30:30] [STDERR]                      ~~~~^^
[2026-03-15 12:30:30] [STDERR]   File "C:\Jarvis\jarvis_desktop_test.py", line 36, in main
[2026-03-15 12:30:30] [STDERR]     raise RuntimeError("Jarvis test crash triggered intentionally")
[2026-03-15 12:30:30] [STDERR] RuntimeError: Jarvis test crash triggered intentionally
[2026-03-15 12:30:30] [INFO] Desktop renderer exited. exit_code=1
[2026-03-15 12:30:30] [ERROR] Crash log written: C:\Jarvis\logs\crash\crash_2026-03-15_12-30-30.txt
[2026-03-15 12:30:30] [INFO] Trying voice line 'Uhm..... Sir, I seem to be malfunctioning.' using voice --text --mode
[2026-03-15 12:30:36] [VOICE_STDOUT] ffmpeg version 2026-03-12-git-9dc44b43b2-essentials_build-www.gyan.dev Copyright (c) 2000-2026 the FFmpeg developers
[2026-03-15 12:30:36] [VOICE_STDOUT]   built with gcc 15.2.0 (Rev11, Built by MSYS2 project)
[2026-03-15 12:30:36] [VOICE_STDOUT]   configuration: --enable-gpl --enable-version3 --enable-static --disable-w32threads --disable-autodetect --enable-cairo --enable-fontconfig --enable-iconv --enable-gnutls --enable-libxml2 --enable-gmp --enable-bzlib --enable-lzma --enable-zlib --enable-libsrt --enable-libssh --enable-libzmq --enable-avisynth --enable-sdl2 --enable-libwebp --enable-libx264 --enable-libx265 --enable-libxvid --enable-libaom --enable-libopenjpeg --enable-libvpx --enable-mediafoundation --enable-libass --enable-libfreetype --enable-libfribidi --enable-libharfbuzz --enable-libvidstab --enable-libvmaf --enable-libzimg --enable-amf --enable-cuda-llvm --enable-cuvid --enable-dxva2 --enable-d3d11va --enable-d3d12va --enable-ffnvcodec --enable-libvpl --enable-nvdec --enable-nvenc --enable-vaapi --enable-openal --enable-libgme --enable-libopenmpt --enable-libopencore-amrwb --enable-libmp3lame --enable-libtheora --enable-libvo-amrwbenc --enable-libgsm --enable-libopencore-amrnb --enable-libopus --enable-libspeex --enable-libvorbis --enable-librubberband
[2026-03-15 12:30:36] [VOICE_STDOUT]   libavutil      60. 27.100 / 60. 27.100
[2026-03-15 12:30:36] [VOICE_STDOUT]   libavcodec     62. 29.100 / 62. 29.100
[2026-03-15 12:30:36] [VOICE_STDOUT]   libavformat    62. 13.100 / 62. 13.100
[2026-03-15 12:30:36] [VOICE_STDOUT]   libavdevice    62.  4.100 / 62.  4.100
[2026-03-15 12:30:36] [VOICE_STDOUT]   libavfilter    11. 15.101 / 11. 15.101
[2026-03-15 12:30:36] [VOICE_STDOUT]   libswscale      9.  6.100 /  9.  6.100
[2026-03-15 12:30:36] [VOICE_STDOUT]   libswresample   6.  4.100 /  6.  4.100
[2026-03-15 12:30:36] [VOICE_STDOUT] [Parsed_aphaser_23 @ 00000248f21bff80] Value 2.200000 for parameter 'speed' out of range [0.1 - 2]
[2026-03-15 12:30:36] [VOICE_STDOUT] [fc#0 @ 00000248f215ab40] Error applying option 'speed' to filter 'aphaser': Result too large
[2026-03-15 12:30:36] [VOICE_STDOUT] Error : Result too large
[2026-03-15 12:30:36] [VOICE_STDERR] [mp3 @ 000001B3DAA74300] Estimating duration from bitrate, this may be inaccurate
[2026-03-15 12:30:36] [VOICE_STDERR] Input #0, mp3, from 'C:/Users/anden/AppData/Local/Temp/tmp4ccc4cyg.mp3':
[2026-03-15 12:30:36] [VOICE_STDERR]   Duration: 00:00:05.14, start: 0.000000, bitrate: 48 kb/s
[2026-03-15 12:30:36] [VOICE_STDERR]   Stream #0:0: Audio: mp3 (mp3float), 24000 Hz, mono, fltp, 48 kb/s
[2026-03-15 12:30:36] [INFO] Voice line completed: Uhm..... Sir, I seem to be malfunctioning.
[2026-03-15 12:30:36] [INFO] Failure voice step 1/3 success=True line=Uhm..... Sir, I seem to be malfunctioning.
[2026-03-15 12:30:37] [INFO] Trying voice line 'Attempting restart.' using voice --text --mode
[2026-03-15 12:30:41] [VOICE_STDOUT] ffmpeg version 2026-03-12-git-9dc44b43b2-essentials_build-www.gyan.dev Copyright (c) 2000-2026 the FFmpeg developers
[2026-03-15 12:30:41] [VOICE_STDOUT]   built with gcc 15.2.0 (Rev11, Built by MSYS2 project)
[2026-03-15 12:30:41] [VOICE_STDOUT]   configuration: --enable-gpl --enable-version3 --enable-static --disable-w32threads --disable-autodetect --enable-cairo --enable-fontconfig --enable-iconv --enable-gnutls --enable-libxml2 --enable-gmp --enable-bzlib --enable-lzma --enable-zlib --enable-libsrt --enable-libssh --enable-libzmq --enable-avisynth --enable-sdl2 --enable-libwebp --enable-libx264 --enable-libx265 --enable-libxvid --enable-libaom --enable-libopenjpeg --enable-libvpx --enable-mediafoundation --enable-libass --enable-libfreetype --enable-libfribidi --enable-libharfbuzz --enable-libvidstab --enable-libvmaf --enable-libzimg --enable-amf --enable-cuda-llvm --enable-cuvid --enable-dxva2 --enable-d3d11va --enable-d3d12va --enable-ffnvcodec --enable-libvpl --enable-nvdec --enable-nvenc --enable-vaapi --enable-openal --enable-libgme --enable-libopenmpt --enable-libopencore-amrwb --enable-libmp3lame --enable-libtheora --enable-libvo-amrwbenc --enable-libgsm --enable-libopencore-amrnb --enable-libopus --enable-libspeex --enable-libvorbis --enable-librubberband
[2026-03-15 12:30:41] [VOICE_STDOUT]   libavutil      60. 27.100 / 60. 27.100
[2026-03-15 12:30:41] [VOICE_STDOUT]   libavcodec     62. 29.100 / 62. 29.100
[2026-03-15 12:30:41] [VOICE_STDOUT]   libavformat    62. 13.100 / 62. 13.100
[2026-03-15 12:30:41] [VOICE_STDOUT]   libavdevice    62.  4.100 / 62.  4.100
[2026-03-15 12:30:41] [VOICE_STDOUT]   libavfilter    11. 15.101 / 11. 15.101
[2026-03-15 12:30:41] [VOICE_STDOUT]   libswscale      9.  6.100 /  9.  6.100
[2026-03-15 12:30:41] [VOICE_STDOUT]   libswresample   6.  4.100 /  6.  4.100
[2026-03-15 12:30:41] [VOICE_STDOUT] [Parsed_aphaser_23 @ 000002612ac64280] Value 2.200000 for parameter 'speed' out of range [0.1 - 2]
[2026-03-15 12:30:41] [VOICE_STDOUT] [fc#0 @ 000002612ac28a00] Error applying option 'speed' to filter 'aphaser': Result too large
[2026-03-15 12:30:41] [VOICE_STDOUT] Error : Result too large
[2026-03-15 12:30:41] [VOICE_STDERR] [mp3 @ 000002DA10C38F40] Estimating duration from bitrate, this may be inaccurate
[2026-03-15 12:30:41] [VOICE_STDERR] Input #0, mp3, from 'C:/Users/anden/AppData/Local/Temp/tmpo2jo_8u8.mp3':
[2026-03-15 12:30:41] [VOICE_STDERR]   Duration: 00:00:02.66, start: 0.000000, bitrate: 48 kb/s
[2026-03-15 12:30:41] [VOICE_STDERR]   Stream #0:0: Audio: mp3 (mp3float), 24000 Hz, mono, fltp, 48 kb/s
[2026-03-15 12:30:41] [INFO] Voice line completed: Attempting restart.
[2026-03-15 12:30:41] [INFO] Failure voice step 2/3 success=True line=Attempting restart.
[2026-03-15 12:30:42] [INFO] Trying voice line 'Restart failed.' using voice --text --mode
[2026-03-15 12:30:46] [VOICE_STDOUT] ffmpeg version 2026-03-12-git-9dc44b43b2-essentials_build-www.gyan.dev Copyright (c) 2000-2026 the FFmpeg developers
[2026-03-15 12:30:46] [VOICE_STDOUT]   built with gcc 15.2.0 (Rev11, Built by MSYS2 project)
[2026-03-15 12:30:46] [VOICE_STDOUT]   configuration: --enable-gpl --enable-version3 --enable-static --disable-w32threads --disable-autodetect --enable-cairo --enable-fontconfig --enable-iconv --enable-gnutls --enable-libxml2 --enable-gmp --enable-bzlib --enable-lzma --enable-zlib --enable-libsrt --enable-libssh --enable-libzmq --enable-avisynth --enable-sdl2 --enable-libwebp --enable-libx264 --enable-libx265 --enable-libxvid --enable-libaom --enable-libopenjpeg --enable-libvpx --enable-mediafoundation --enable-libass --enable-libfreetype --enable-libfribidi --enable-libharfbuzz --enable-libvidstab --enable-libvmaf --enable-libzimg --enable-amf --enable-cuda-llvm --enable-cuvid --enable-dxva2 --enable-d3d11va --enable-d3d12va --enable-ffnvcodec --enable-libvpl --enable-nvdec --enable-nvenc --enable-vaapi --enable-openal --enable-libgme --enable-libopenmpt --enable-libopencore-amrwb --enable-libmp3lame --enable-libtheora --enable-libvo-amrwbenc --enable-libgsm --enable-libopencore-amrnb --enable-libopus --enable-libspeex --enable-libvorbis --enable-librubberband
[2026-03-15 12:30:46] [VOICE_STDOUT]   libavutil      60. 27.100 / 60. 27.100
[2026-03-15 12:30:46] [VOICE_STDOUT]   libavcodec     62. 29.100 / 62. 29.100
[2026-03-15 12:30:46] [VOICE_STDOUT]   libavformat    62. 13.100 / 62. 13.100
[2026-03-15 12:30:46] [VOICE_STDOUT]   libavdevice    62.  4.100 / 62.  4.100
[2026-03-15 12:30:46] [VOICE_STDOUT]   libavfilter    11. 15.101 / 11. 15.101
[2026-03-15 12:30:46] [VOICE_STDOUT]   libswscale      9.  6.100 /  9.  6.100
[2026-03-15 12:30:46] [VOICE_STDOUT]   libswresample   6.  4.100 /  6.  4.100
[2026-03-15 12:30:46] [VOICE_STDOUT] [Parsed_aphaser_23 @ 00000297f3134100] Value 2.200000 for parameter 'speed' out of range [0.1 - 2]
[2026-03-15 12:30:46] [VOICE_STDOUT] [fc#0 @ 00000297f30f8840] Error applying option 'speed' to filter 'aphaser': Result too large
[2026-03-15 12:30:46] [VOICE_STDOUT] Error : Result too large
[2026-03-15 12:30:46] [VOICE_STDERR] [mp3 @ 000001955A74F540] Estimating duration from bitrate, this may be inaccurate
[2026-03-15 12:30:46] [VOICE_STDERR] Input #0, mp3, from 'C:/Users/anden/AppData/Local/Temp/tmp6k5rb1bk.mp3':
[2026-03-15 12:30:46] [VOICE_STDERR]   Duration: 00:00:02.57, start: 0.000000, bitrate: 48 kb/s
[2026-03-15 12:30:46] [VOICE_STDERR]   Stream #0:0: Audio: mp3 (mp3float), 24000 Hz, mono, fltp, 48 kb/s
[2026-03-15 12:30:46] [INFO] Voice line completed: Restart failed.
[2026-03-15 12:30:46] [INFO] Failure voice step 3/3 success=True line=Restart failed.
[2026-03-15 12:30:46] [INFO] Diagnostics process launched.
